<svg width="40" height="37" viewBox="0 0 40 37" fill="none" xmlns="http://www.w3.org/2000/svg">
<g filter="url(#filter0_di_159384_4879)">
<path d="M20.0123 7.16016C21.5035 7.16016 22.9087 7.44283 24.2278 8.00818C25.547 8.57353 26.6982 9.34782 27.6814 10.331C28.6646 11.3143 29.4389 12.4654 30.0043 13.7846C30.5696 15.1038 30.8523 16.5089 30.8523 18.0002C30.8523 19.5078 30.5696 20.917 30.0043 22.228C29.4389 23.539 28.6646 24.6861 27.6814 25.6693C26.6982 26.6525 25.547 27.4268 24.2278 27.9921C22.9087 28.5575 21.5035 28.8402 20.0123 28.8402C18.5047 28.8402 17.0913 28.5575 15.7721 27.9921C14.453 27.4268 13.3018 26.6525 12.3186 25.6693C11.3354 24.6861 10.5611 23.539 9.99573 22.228C9.43038 20.917 9.14771 19.5078 9.14771 18.0002C9.14771 16.5089 9.43038 15.1038 9.99573 13.7846C10.5611 12.4654 11.3354 11.3143 12.3186 10.331C13.3018 9.34782 14.453 8.57353 15.7721 8.00818C17.0913 7.44283 18.5047 7.16016 20.0123 7.16016ZM26.2066 19.4996C26.6326 19.4996 26.9931 19.348 27.2881 19.0448C27.5831 18.7417 27.7306 18.3771 27.7306 17.951C27.7306 17.5249 27.5831 17.1644 27.2881 16.8695C26.9931 16.5745 26.6326 16.427 26.2066 16.427H21.5854V11.8059C21.5854 11.3798 21.4339 11.0152 21.1307 10.712C20.8275 10.4089 20.4629 10.2573 20.0369 10.2573C19.6108 10.2573 19.2503 10.4089 18.9553 10.712C18.6604 11.0152 18.5129 11.3798 18.5129 11.8059V16.427H13.8917C13.4657 16.427 13.1052 16.5745 12.8102 16.8695C12.5152 17.1644 12.3678 17.5249 12.3678 17.951C12.3678 18.3771 12.5152 18.7417 12.8102 19.0448C13.1052 19.348 13.4657 19.4996 13.8917 19.4996H18.5129V24.0961C18.5129 24.5222 18.6604 24.8868 18.9553 25.19C19.2503 25.4931 19.6108 25.6447 20.0369 25.6447C20.4629 25.6447 20.8275 25.4931 21.1307 25.19C21.4339 24.8868 21.5854 24.5222 21.5854 24.0961V19.4996H26.2066Z" fill="url(#paint0_linear_159384_4879)"/>
</g>
<defs>
<filter id="filter0_di_159384_4879" x="4.14771" y="5.16016" width="31.7046" height="31.6801" filterUnits="userSpaceOnUse" color-interpolation-filters="sRGB">
<feFlood flood-opacity="0" result="BackgroundImageFix"/>
<feColorMatrix in="SourceAlpha" type="matrix" values="0 0 0 0 0 0 0 0 0 0 0 0 0 0 0 0 0 0 127 0" result="hardAlpha"/>
<feOffset dy="3"/>
<feGaussianBlur stdDeviation="2.5"/>
<feColorMatrix type="matrix" values="0 0 0 0 0 0 0 0 0 0 0 0 0 0 0 0 0 0 0.4 0"/>
<feBlend mode="normal" in2="BackgroundImageFix" result="effect1_dropShadow_159384_4879"/>
<feBlend mode="normal" in="SourceGraphic" in2="effect1_dropShadow_159384_4879" result="shape"/>
<feColorMatrix in="SourceAlpha" type="matrix" values="0 0 0 0 0 0 0 0 0 0 0 0 0 0 0 0 0 0 127 0" result="hardAlpha"/>
<feOffset dy="1"/>
<feComposite in2="hardAlpha" operator="arithmetic" k2="-1" k3="1"/>
<feColorMatrix type="matrix" values="0 0 0 0 1 0 0 0 0 1 0 0 0 0 1 0 0 0 1 0"/>
<feBlend mode="normal" in2="shape" result="effect2_innerShadow_159384_4879"/>
</filter>
<linearGradient id="paint0_linear_159384_4879" x1="12.3263" y1="10.3351" x2="30.7223" y2="28.7521" gradientUnits="userSpaceOnUse">
<stop stop-color="#A6A7A7"/>
<stop offset="1" stop-color="#868787"/>
</linearGradient>
</defs>
</svg>
