<svg width="40" height="37" viewBox="0 0 40 37" fill="none" xmlns="http://www.w3.org/2000/svg">
<g filter="url(#filter0_ii_159056_5521)">
<rect width="40" height="36" rx="6" fill="#FEBF3B"/>
</g>
<g filter="url(#filter1_di_159056_5521)">
<path d="M20.012 7.16016C21.5033 7.16016 22.9084 7.44283 24.2276 8.00818C25.5467 8.57353 26.6979 9.34782 27.6812 10.331C28.6644 11.3143 29.4387 12.4654 30.004 13.7846C30.5694 15.1038 30.852 16.5089 30.852 18.0002C30.852 19.5078 30.5694 20.917 30.004 22.228C29.4387 23.539 28.6644 24.6861 27.6812 25.6693C26.6979 26.6525 25.5467 27.4268 24.2276 27.9921C22.9084 28.5575 21.5033 28.8402 20.012 28.8402C18.5044 28.8402 17.0911 28.5575 15.7719 27.9921C14.4528 27.4268 13.3016 26.6525 12.3183 25.6693C11.3351 24.6861 10.5608 23.539 9.99549 22.228C9.43014 20.917 9.14746 19.5078 9.14746 18.0002C9.14746 16.5089 9.43014 15.1038 9.99549 13.7846C10.5608 12.4654 11.3351 11.3143 12.3183 10.331C13.3016 9.34782 14.4528 8.57353 15.7719 8.00818C17.0911 7.44283 18.5044 7.16016 20.012 7.16016ZM26.2063 19.4996C26.6324 19.4996 26.9929 19.348 27.2879 19.0448C27.5828 18.7417 27.7303 18.3771 27.7303 17.951C27.7303 17.5249 27.5828 17.1644 27.2879 16.8695C26.9929 16.5745 26.6324 16.427 26.2063 16.427H21.5852V11.8059C21.5852 11.3798 21.4336 11.0152 21.1305 10.712C20.8273 10.4089 20.4627 10.2573 20.0366 10.2573C19.6106 10.2573 19.25 10.4089 18.9551 10.712C18.6601 11.0152 18.5126 11.3798 18.5126 11.8059V16.427H13.8915C13.4654 16.427 13.1049 16.5745 12.81 16.8695C12.515 17.1644 12.3675 17.5249 12.3675 17.951C12.3675 18.3771 12.515 18.7417 12.81 19.0448C13.1049 19.348 13.4654 19.4996 13.8915 19.4996H18.5126V24.0961C18.5126 24.5222 18.6601 24.8868 18.9551 25.19C19.25 25.4931 19.6106 25.6447 20.0366 25.6447C20.4627 25.6447 20.8273 25.4931 21.1305 25.19C21.4336 24.8868 21.5852 24.5222 21.5852 24.0961V19.4996H26.2063Z" fill="#002762"/>
</g>
<defs>
<filter id="filter0_ii_159056_5521" x="-2" y="-2" width="44" height="40" filterUnits="userSpaceOnUse" color-interpolation-filters="sRGB">
<feFlood flood-opacity="0" result="BackgroundImageFix"/>
<feBlend mode="normal" in="SourceGraphic" in2="BackgroundImageFix" result="shape"/>
<feColorMatrix in="SourceAlpha" type="matrix" values="0 0 0 0 0 0 0 0 0 0 0 0 0 0 0 0 0 0 127 0" result="hardAlpha"/>
<feOffset dx="-2" dy="-2"/>
<feGaussianBlur stdDeviation="5"/>
<feComposite in2="hardAlpha" operator="arithmetic" k2="-1" k3="1"/>
<feColorMatrix type="matrix" values="0 0 0 0 0.882682 0 0 0 0 0.96285 0 0 0 0 1 0 0 0 0.3 0"/>
<feBlend mode="normal" in2="shape" result="effect1_innerShadow_159056_5521"/>
<feColorMatrix in="SourceAlpha" type="matrix" values="0 0 0 0 0 0 0 0 0 0 0 0 0 0 0 0 0 0 127 0" result="hardAlpha"/>
<feOffset dx="2" dy="2"/>
<feGaussianBlur stdDeviation="5"/>
<feComposite in2="hardAlpha" operator="arithmetic" k2="-1" k3="1"/>
<feColorMatrix type="matrix" values="0 0 0 0 0 0 0 0 0 0.0699349 0 0 0 0 0.174837 0 0 0 0.8 0"/>
<feBlend mode="normal" in2="effect1_innerShadow_159056_5521" result="effect2_innerShadow_159056_5521"/>
</filter>
<filter id="filter1_di_159056_5521" x="4.14746" y="5.16016" width="31.7046" height="31.6799" filterUnits="userSpaceOnUse" color-interpolation-filters="sRGB">
<feFlood flood-opacity="0" result="BackgroundImageFix"/>
<feColorMatrix in="SourceAlpha" type="matrix" values="0 0 0 0 0 0 0 0 0 0 0 0 0 0 0 0 0 0 127 0" result="hardAlpha"/>
<feOffset dy="3"/>
<feGaussianBlur stdDeviation="2.5"/>
<feColorMatrix type="matrix" values="0 0 0 0 0 0 0 0 0 0 0 0 0 0 0 0 0 0 0.4 0"/>
<feBlend mode="normal" in2="BackgroundImageFix" result="effect1_dropShadow_159056_5521"/>
<feBlend mode="normal" in="SourceGraphic" in2="effect1_dropShadow_159056_5521" result="shape"/>
<feColorMatrix in="SourceAlpha" type="matrix" values="0 0 0 0 0 0 0 0 0 0 0 0 0 0 0 0 0 0 127 0" result="hardAlpha"/>
<feOffset dy="1"/>
<feComposite in2="hardAlpha" operator="arithmetic" k2="-1" k3="1"/>
<feColorMatrix type="matrix" values="0 0 0 0 1 0 0 0 0 1 0 0 0 0 1 0 0 0 1 0"/>
<feBlend mode="normal" in2="shape" result="effect2_innerShadow_159056_5521"/>
</filter>
</defs>
</svg>
