<svg width="40" height="37" viewBox="0 0 40 37" fill="none" xmlns="http://www.w3.org/2000/svg">
<g filter="url(#filter0_di_159056_5527)">
<path d="M23.5495 10.8486C23.0217 10.8486 22.5898 11.2768 22.5898 11.8003V14.1794C22.5898 14.7029 23.0217 15.1312 23.5495 15.1312C24.0774 15.1312 24.5092 14.7029 24.5092 14.1794V11.8003C24.5092 11.2768 24.0774 10.8486 23.5495 10.8486Z" fill="url(#paint0_linear_159056_5527)"/>
<path d="M30.1775 13.035L26.5605 7.87704C26.2356 7.43368 25.7071 7.15171 25.0975 7.11133H11.9303C11.0361 7.11133 10.3047 7.83666 10.3047 8.72324V27.2197C10.3047 28.1062 11.0361 28.7913 11.9303 28.7913H29.0395C29.9336 28.7913 30.6245 28.0659 30.6245 27.2197V14.1634C30.6652 13.7201 30.4621 13.3171 30.1775 13.035ZM12.6755 9.51266H25.5175V14.9931C25.5175 15.7587 24.8671 16.4438 24.0545 16.4438H14.1385C13.3257 16.4438 12.6755 15.799 12.6755 14.9931V9.51266ZM26.1789 26.0133H14.7013C14.09 26.0133 13.5944 25.5098 13.5944 24.8887C13.5944 24.2675 14.09 23.764 14.7013 23.764H26.1789C26.7902 23.764 27.2858 24.2675 27.2858 24.8887C27.2858 25.5098 26.7902 26.0133 26.1789 26.0133ZM26.179 21.8673H14.7013C14.09 21.8673 13.5944 21.3638 13.5944 20.7426C13.5944 20.1215 14.0899 19.618 14.7013 19.618H26.179C26.7903 19.618 27.2859 20.1215 27.2859 20.7426C27.2859 21.3638 26.7903 21.8673 26.179 21.8673Z" fill="url(#paint1_linear_159056_5527)"/>
</g>
<defs>
<filter id="filter0_di_159056_5527" x="5.30469" y="5.11133" width="30.3252" height="31.6799" filterUnits="userSpaceOnUse" color-interpolation-filters="sRGB">
<feFlood flood-opacity="0" result="BackgroundImageFix"/>
<feColorMatrix in="SourceAlpha" type="matrix" values="0 0 0 0 0 0 0 0 0 0 0 0 0 0 0 0 0 0 127 0" result="hardAlpha"/>
<feOffset dy="3"/>
<feGaussianBlur stdDeviation="2.5"/>
<feColorMatrix type="matrix" values="0 0 0 0 0 0 0 0 0 0 0 0 0 0 0 0 0 0 0.4 0"/>
<feBlend mode="normal" in2="BackgroundImageFix" result="effect1_dropShadow_159056_5527"/>
<feBlend mode="normal" in="SourceGraphic" in2="effect1_dropShadow_159056_5527" result="shape"/>
<feColorMatrix in="SourceAlpha" type="matrix" values="0 0 0 0 0 0 0 0 0 0 0 0 0 0 0 0 0 0 127 0" result="hardAlpha"/>
<feOffset dy="1"/>
<feComposite in2="hardAlpha" operator="arithmetic" k2="-1" k3="1"/>
<feColorMatrix type="matrix" values="0 0 0 0 1 0 0 0 0 1 0 0 0 0 1 0 0 0 1 0"/>
<feBlend mode="normal" in2="shape" result="effect2_innerShadow_159056_5527"/>
</filter>
<linearGradient id="paint0_linear_159056_5527" x1="22.8709" y1="11.4758" x2="25.5834" y2="12.6915" gradientUnits="userSpaceOnUse">
<stop stop-color="#A6A7A7"/>
<stop offset="1" stop-color="#868787"/>
</linearGradient>
<linearGradient id="paint1_linear_159056_5527" x1="13.2812" y1="10.2863" x2="31.6391" y2="27.4968" gradientUnits="userSpaceOnUse">
<stop stop-color="#A6A7A7"/>
<stop offset="1" stop-color="#868787"/>
</linearGradient>
</defs>
</svg>
