<svg width="138" height="44" viewBox="0 0 138 44" fill="none" xmlns="http://www.w3.org/2000/svg">
<path d="M0.204441 1.29153C0.251563 1.80635 0.683314 2.20038 1.20028 2.20038L112.551 2.19995C113.068 2.19995 113.499 1.80591 113.546 1.2911C113.6 0.70527 113.139 0.199949 112.551 0.199951L1.20028 0.200381C0.612001 0.200384 0.150819 0.705705 0.204441 1.29153Z" fill="#7CCFFF"/>
<path d="M112.003 0.948762C111.799 1.23592 111.779 1.61491 111.952 1.9218L135.075 43.0106C135.388 43.5651 136.14 43.674 136.597 43.2306C136.913 42.9232 136.982 42.441 136.765 42.0571L113.537 1.0272C113.208 0.44725 112.389 0.405327 112.003 0.948762Z" fill="#7CCFFF"/>
<path d="M6.7347 38.4529C7.11439 37.9828 7.68629 37.7095 8.29058 37.7095H111.918C112.522 37.7095 113.094 37.9828 113.474 38.4529L116.104 41.7095H4.10431L6.7347 38.4529Z" fill="#60C5FF"/>
<path d="M112.551 0.100342C113.089 0.100434 113.529 0.485459 113.628 0.986084L136.852 42.0076C137.091 42.4311 137.015 42.9634 136.666 43.3025C136.162 43.7914 135.332 43.671 134.988 43.0593L112.05 2.29956L1.2002 2.30054C0.631569 2.30049 0.156324 1.86681 0.104492 1.30054C0.0455985 0.656214 0.553178 0.100391 1.2002 0.100342H112.551ZM111.918 37.6091C112.552 37.6091 113.153 37.8968 113.552 38.3904L116.182 41.6462L116.313 41.8093H3.89453L4.02637 41.6462L6.65723 38.3904C7.05591 37.8968 7.65651 37.6091 8.29102 37.6091H111.918Z" stroke="#7CCFFF" stroke-width="0.2"/>
</svg>
