<svg width="43" height="46" viewBox="0 0 43 46" fill="none" xmlns="http://www.w3.org/2000/svg">
<g filter="url(#filter0_di_159056_5426)">
<path d="M37.492 22.2942C37.589 22.5366 37.6572 22.8446 37.6932 23.2085C37.7255 23.5722 37.5603 23.9262 37.1903 24.2638C37.0249 24.4113 36.8742 24.5588 36.7377 24.6931C36.6083 24.8342 36.4898 24.9422 36.3855 25.037C36.2562 25.1584 36.1377 25.247 36.0336 25.3123L31.7728 21.4718C31.9776 21.3177 32.2 21.1308 32.4482 20.9213C32.6995 20.7115 32.9082 20.5443 33.077 20.4166C33.4719 20.0822 33.9102 19.9379 34.3772 19.9872C34.8479 20.0333 35.2289 20.1283 35.5307 20.2822C35.8647 20.4362 36.2203 20.6983 36.6083 21.0817C36.9964 21.4617 37.2907 21.8647 37.492 22.2942ZM19.9026 32.3089L20.5495 31.7126L21.8032 30.5656C22.3062 30.1099 22.8596 29.5987 23.4594 29.0352C24.0593 28.4716 24.6628 27.9144 25.2664 27.3638C26.6999 26.0529 28.3239 24.5916 30.1274 22.9727L34.3377 26.8132L29.4734 31.2504L27.67 32.8956L26.0138 34.4064C25.5468 34.8356 25.1588 35.1929 24.8392 35.5075C24.5228 35.809 24.3468 35.976 24.3145 36.0055C24.1457 36.1268 23.9626 36.2545 23.7649 36.3955C23.5601 36.5298 23.3661 36.6446 23.1614 36.7364C22.9601 36.8313 22.6511 36.9429 22.2344 37.0803C21.8105 37.2181 21.3829 37.3524 20.9518 37.4671C20.5172 37.5949 20.1003 37.7032 19.6979 37.7883C19.2991 37.8832 18.9974 37.9489 18.7962 37.975C18.3976 38.034 18.128 37.9883 17.9915 37.8407C17.8586 37.6867 17.8261 37.4244 17.8909 37.0609C17.9233 36.8807 17.9915 36.6053 18.0921 36.2416C18.1927 35.8713 18.3113 35.4975 18.4443 35.1207C18.5772 34.7375 18.703 34.3769 18.8178 34.0458C18.9401 33.7051 19.0336 33.4821 19.0944 33.3543C19.2991 32.9609 19.5649 32.6106 19.9026 32.3089ZM34.184 4.88424C34.184 3.29107 32.5135 2 30.7677 2H8.41629C6.67043 2 5 3.29107 5 4.88424V32.516C5 34.1089 6.67043 35.633 8.41629 35.633H13.006L34.1841 16.3148L34.184 4.88424ZM18.9133 24.7008H10.7871V22.7934H18.9133V24.7008ZM18.9133 20.3748H10.7871V18.4673H18.9133V20.3748ZM28.3969 16.0486H10.7871V14.1411H28.3969V16.0486ZM28.3969 11.7224H10.7871V9.81469H28.3969V11.7224Z" fill="url(#paint0_linear_159056_5426)"/>
</g>
<defs>
<filter id="filter0_di_159056_5426" x="0" y="0" width="42.6973" height="46" filterUnits="userSpaceOnUse" color-interpolation-filters="sRGB">
<feFlood flood-opacity="0" result="BackgroundImageFix"/>
<feColorMatrix in="SourceAlpha" type="matrix" values="0 0 0 0 0 0 0 0 0 0 0 0 0 0 0 0 0 0 127 0" result="hardAlpha"/>
<feOffset dy="3"/>
<feGaussianBlur stdDeviation="2.5"/>
<feColorMatrix type="matrix" values="0 0 0 0 0 0 0 0 0 0 0 0 0 0 0 0 0 0 0.4 0"/>
<feBlend mode="normal" in2="BackgroundImageFix" result="effect1_dropShadow_159056_5426"/>
<feBlend mode="normal" in="SourceGraphic" in2="effect1_dropShadow_159056_5426" result="shape"/>
<feColorMatrix in="SourceAlpha" type="matrix" values="0 0 0 0 0 0 0 0 0 0 0 0 0 0 0 0 0 0 127 0" result="hardAlpha"/>
<feOffset dy="1"/>
<feComposite in2="hardAlpha" operator="arithmetic" k2="-1" k3="1"/>
<feColorMatrix type="matrix" values="0 0 0 0 1 0 0 0 0 1 0 0 0 0 1 0 0 0 1 0"/>
<feBlend mode="normal" in2="shape" result="effect2_innerShadow_159056_5426"/>
</filter>
<linearGradient id="paint0_linear_159056_5426" x1="9.78839" y1="7.27208" x2="40.1945" y2="34.8886" gradientUnits="userSpaceOnUse">
<stop stop-color="#A6A7A7"/>
<stop offset="1" stop-color="#868787"/>
</linearGradient>
</defs>
</svg>
