<svg width="46" height="39" viewBox="0 0 46 39" fill="none" xmlns="http://www.w3.org/2000/svg">
<g filter="url(#filter0_di_159056_5436)">
<path d="M23.7376 23.553L26.5425 17.5116L28.9739 22.7472L34.4844 10.885C34.6115 10.6164 34.4923 10.2957 34.2261 10.1674C34.1546 10.1353 34.0792 10.1153 33.9997 10.1153H28.5012L25.8035 15.9161L22.9986 21.9574V21.9534L19.6137 29.2375C19.0217 30.6847 17.3809 31.3702 15.9467 30.7729C15.2594 30.4843 14.7111 29.935 14.4251 29.2375L14.2145 28.7845L5.3032 9.60617C4.55231 7.9906 5.2436 6.06635 6.85264 5.30868C7.27774 5.10824 7.74258 5.00401 8.21138 5.00401H18.0086C19.6693 5.00401 21.183 5.97415 21.8862 7.48949L22.2557 8.28726L19.4468 14.3246L17.7822 10.7447C17.6074 10.3638 17.2299 10.1233 16.8128 10.1233H11.9976C11.7036 10.1233 11.4612 10.3638 11.4612 10.6605C11.4612 10.7407 11.4771 10.8168 11.5129 10.889L17.0233 22.7512L20.1938 15.9241L20.1898 15.9121L22.9986 9.87476L23.0026 9.87877L24.115 7.48549C24.8182 5.97014 26.3319 5 27.9926 5H37.7899C39.5618 5 41 6.44719 41 8.23113C41 8.70418 40.8967 9.17321 40.6981 9.60216L31.5722 29.2455C30.9803 30.6927 29.3355 31.3822 27.9052 30.7849C27.2179 30.4963 26.6696 29.9471 26.3836 29.2495V29.2455L23.7376 23.553Z" fill="url(#paint0_linear_159056_5436)"/>
</g>
<defs>
<filter id="filter0_di_159056_5436" x="0" y="3" width="46" height="36" filterUnits="userSpaceOnUse" color-interpolation-filters="sRGB">
<feFlood flood-opacity="0" result="BackgroundImageFix"/>
<feColorMatrix in="SourceAlpha" type="matrix" values="0 0 0 0 0 0 0 0 0 0 0 0 0 0 0 0 0 0 127 0" result="hardAlpha"/>
<feOffset dy="3"/>
<feGaussianBlur stdDeviation="2.5"/>
<feColorMatrix type="matrix" values="0 0 0 0 0 0 0 0 0 0 0 0 0 0 0 0 0 0 0.4 0"/>
<feBlend mode="normal" in2="BackgroundImageFix" result="effect1_dropShadow_159056_5436"/>
<feBlend mode="normal" in="SourceGraphic" in2="effect1_dropShadow_159056_5436" result="shape"/>
<feColorMatrix in="SourceAlpha" type="matrix" values="0 0 0 0 0 0 0 0 0 0 0 0 0 0 0 0 0 0 127 0" result="hardAlpha"/>
<feOffset dy="1"/>
<feComposite in2="hardAlpha" operator="arithmetic" k2="-1" k3="1"/>
<feColorMatrix type="matrix" values="0 0 0 0 1 0 0 0 0 1 0 0 0 0 1 0 0 0 1 0"/>
<feBlend mode="normal" in2="shape" result="effect2_innerShadow_159056_5436"/>
</filter>
<linearGradient id="paint0_linear_159056_5436" x1="10.2721" y1="8.80761" x2="31.2151" y2="37.8056" gradientUnits="userSpaceOnUse">
<stop stop-color="#A6A7A7"/>
<stop offset="1" stop-color="#868787"/>
</linearGradient>
</defs>
</svg>
