<svg width="46" height="43" viewBox="0 0 46 43" fill="none" xmlns="http://www.w3.org/2000/svg">
<g filter="url(#filter0_di_159056_5443)">
<path d="M31.0245 10.1873C32.9866 10.1873 34.5724 8.3558 34.5724 6.09365C34.5742 3.8315 32.9848 2 31.0245 2C29.0661 2 27.4749 3.83315 27.4749 6.092C27.4749 8.35415 29.0643 10.1873 31.0245 10.1873ZM30.9345 11.0552C30.0255 11.108 27.1905 11.3671 27.1905 11.3671L25.7577 8.0621C25.0413 6.1547 24.0153 6.8246 24.0153 6.8246C22.7157 7.3922 22.7157 8.32115 22.7157 8.32115C22.5843 9.2501 22.3143 8.99105 22.3143 8.99105L19.5387 2.5445C18.9141 2.85305 18.7791 4.2968 18.7791 4.2968L18.9141 5.8379L20.8365 10.283L21.3297 10.3375L22.7157 13.8437C23.7417 15.0317 24.2817 14.6704 24.2817 14.6704L24.5067 14.3568L22.7607 9.9299L23.1639 9.82265L25.1313 14.1523C25.2663 15.497 27.3849 15.0301 27.3849 15.0301L26.1609 16.5778L21.9993 16.9902C20.7033 17.1981 20.2119 17.51 20.2119 17.51L19.4955 16.5266L20.2569 15.959C21.1065 15.3403 20.6583 14.9294 20.6583 14.9294C20.6583 14.9294 20.3451 14.5664 20.2119 14.0516C20.0769 13.5335 19.7205 13.946 19.7205 13.946L15.7371 16.784L15.5139 17.5595C15.5139 17.5595 11.5754 21.1185 11.7536 21.0674C11.9336 21.0146 13.0496 20.3463 13.0496 20.3463C13.2314 21.9452 8.84842 23.2338 8.84842 23.2338C12.5618 23.4401 13.4996 20.914 13.4996 20.914C13.7678 21.5839 13.4996 22.2059 13.4996 22.2059C14.1261 20.7589 14.3961 19.4141 14.3961 19.4141L16.0935 18.2838C16.6767 18.8993 17.0799 18.2311 17.0799 18.2311L18.4659 17.246L18.9159 17.3004L19.9419 18.4868V19.9322C20.2299 20.65 20.8239 20.7209 21.3171 20.6252C21.1047 21.2505 21.9003 21.5723 21.9003 21.5723C22.2819 22.2818 22.4601 24.1133 22.2153 25.3062C22.0137 25.9795 21.8409 26.9282 21.7077 27.6707C21.6375 28.0535 21.5781 28.3802 21.5295 28.5865C21.3889 29.1426 21.3362 29.7144 21.3729 30.2843L21.3819 30.3718C21.4503 31.0087 21.5079 31.5631 21.8319 32.3171C22.3953 33.6239 24.0153 34.2113 24.0153 34.2113C24.3717 33.9951 24.0153 33.7097 24.0153 33.7097C22.2693 33.4506 21.9093 30.5087 21.9093 30.5087C21.6321 29.2069 22.6725 25.4003 22.6725 25.4003C23.0289 23.0804 22.7913 21.432 22.4241 20.2407L22.0281 20.3777L22.0875 20.3447C23.6553 19.7788 25.4445 20.1385 25.4445 20.1385C27.8601 20.1385 27.9519 19.16 27.9519 19.16L30.0525 17.0975L30.9345 20.447C30.9345 20.447 27.4137 20.0873 25.2645 20.6054C23.1189 21.1185 23.8353 24.0605 23.8353 24.0605L26.7423 32.2148C27.5505 34.5364 29.1147 33.8631 29.1147 33.8631C31.5303 33.0381 30.9327 30.3041 30.9327 30.3041L29.0247 25.6593H30.4575C29.5161 27.3622 31.9317 29.1194 31.9317 29.1194L37.1698 32.7279C39.8968 34.5842 40.5232 32.2148 40.5232 32.2148C41.596 30.5087 40.5232 29.0633 40.5232 29.0633L36.3616 26.1758L36.2734 25.9167L38.2408 23.8015C39.7186 23.1811 38.869 20.4998 38.869 20.4998L36.3616 11.7796C35.8252 9.1511 33.6328 9.93155 33.6328 9.93155C32.9614 10.2467 30.9327 11.0569 30.9327 11.0569L30.9345 11.0552ZM5 25.6066C5.06684 25.3958 5.18641 25.2022 5.34922 25.0412C5.51202 24.8802 5.71356 24.7563 5.93781 24.6793H17.6613C18.2427 24.7799 18.6027 25.7122 18.6027 25.7122V33.5529C18.6027 34.7905 17.7513 35 17.7513 35H5.93781C5.09 34.7888 5 33.7081 5 33.7081V25.6066Z" fill="url(#paint0_linear_159056_5443)"/>
</g>
<defs>
<filter id="filter0_di_159056_5443" x="0" y="0" width="46" height="43" filterUnits="userSpaceOnUse" color-interpolation-filters="sRGB">
<feFlood flood-opacity="0" result="BackgroundImageFix"/>
<feColorMatrix in="SourceAlpha" type="matrix" values="0 0 0 0 0 0 0 0 0 0 0 0 0 0 0 0 0 0 127 0" result="hardAlpha"/>
<feOffset dy="3"/>
<feGaussianBlur stdDeviation="2.5"/>
<feColorMatrix type="matrix" values="0 0 0 0 0 0 0 0 0 0 0 0 0 0 0 0 0 0 0.4 0"/>
<feBlend mode="normal" in2="BackgroundImageFix" result="effect1_dropShadow_159056_5443"/>
<feBlend mode="normal" in="SourceGraphic" in2="effect1_dropShadow_159056_5443" result="shape"/>
<feColorMatrix in="SourceAlpha" type="matrix" values="0 0 0 0 0 0 0 0 0 0 0 0 0 0 0 0 0 0 127 0" result="hardAlpha"/>
<feOffset dy="1"/>
<feComposite in2="hardAlpha" operator="arithmetic" k2="-1" k3="1"/>
<feColorMatrix type="matrix" values="0 0 0 0 1 0 0 0 0 1 0 0 0 0 1 0 0 0 1 0"/>
<feBlend mode="normal" in2="shape" result="effect2_innerShadow_159056_5443"/>
</filter>
<linearGradient id="paint0_linear_159056_5443" x1="10.2721" y1="6.83274" x2="38.1678" y2="37.2645" gradientUnits="userSpaceOnUse">
<stop stop-color="#A6A7A7"/>
<stop offset="1" stop-color="#868787"/>
</linearGradient>
</defs>
</svg>
