<svg width="45" height="36" viewBox="0 0 45 36" fill="none" xmlns="http://www.w3.org/2000/svg">
<g filter="url(#filter0_di_159056_5451)">
<path d="M33.9622 15.5001C32.7772 15.5075 31.6209 15.8658 30.6391 16.5296C29.6574 17.1934 28.8943 18.133 28.446 19.23C27.9976 20.327 27.8842 21.5322 28.1199 22.6936C28.3557 23.855 28.9301 24.9206 29.7707 25.7559C30.6113 26.5913 31.6804 27.159 32.8433 27.3874C34.0061 27.6159 35.2106 27.4949 36.3047 27.0397C37.3989 26.5845 38.3337 25.8154 38.9914 24.8296C39.649 23.8437 40 22.6852 40 21.5001C39.9986 20.7094 39.8412 19.9267 39.5368 19.1969C39.2325 18.4671 38.7871 17.8045 38.2262 17.2471C37.6653 16.6898 37 16.2485 36.2683 15.9488C35.5366 15.649 34.7529 15.4965 33.9622 15.5001ZM33.8866 25.3678C33.7339 25.5137 33.5309 25.595 33.3197 25.595C33.1086 25.595 32.9055 25.5137 32.7528 25.3678L30.192 22.8584C30.116 22.7869 30.0555 22.7007 30.0141 22.6049C29.9727 22.5092 29.9513 22.406 29.9513 22.3017C29.9513 22.1974 29.9727 22.0942 30.0141 21.9984C30.0555 21.9027 30.116 21.8164 30.192 21.745C30.3447 21.5992 30.5477 21.5178 30.7589 21.5178C30.97 21.5178 31.1731 21.5992 31.3258 21.745L33.3258 23.7102L37.1746 19.937C37.3273 19.7911 37.5303 19.7098 37.7415 19.7098C37.9526 19.7098 38.1557 19.7911 38.3084 19.937C38.3844 20.0084 38.4449 20.0947 38.4863 20.1904C38.5277 20.2862 38.5491 20.3894 38.5491 20.4937C38.5491 20.598 38.5277 20.7012 38.4863 20.7969C38.4449 20.8926 38.3844 20.9789 38.3084 21.0504L33.8866 25.3678Z" fill="url(#paint0_linear_159056_5451)"/>
</g>
<g filter="url(#filter1_di_159056_5451)">
<path d="M37.5381 2.00007H7.52131C7.19136 1.99825 6.86428 2.0588 6.55883 2.17827C6.25338 2.29773 5.97557 2.47374 5.74133 2.69622C5.50709 2.91869 5.32102 3.18325 5.19381 3.47472C5.0666 3.76619 5.00073 4.07883 5 4.39472V23.6678C5.00021 24.3029 5.26381 24.9119 5.73284 25.3609C6.20187 25.8099 6.83796 26.0623 7.50127 26.0625H27.8722C27.2176 25.306 26.7327 24.4286 26.4477 23.4849C26.1626 22.5412 26.0835 21.5515 26.2153 20.5772C26.347 19.603 26.6868 18.6652 27.2136 17.8221C27.7403 16.9791 28.4426 16.2489 29.2768 15.6769C30.111 15.1049 31.0593 14.7035 32.0626 14.4976C33.0659 14.2916 34.1027 14.2856 35.1085 14.4799C36.1144 14.6742 37.0676 15.0646 37.9091 15.6268C38.7505 16.1891 39.462 16.9111 39.9993 17.748V4.39472C40.0071 4.08146 39.949 3.76991 39.8285 3.47855C39.7081 3.18719 39.5278 2.92196 39.2982 2.69861C39.0686 2.47526 38.7946 2.29833 38.4922 2.17834C38.1899 2.05834 37.8654 1.99772 37.5381 2.00007ZM21.8491 14.3379L19.6276 16.4294C19.5572 16.4919 19.5039 16.57 19.4724 16.6569C19.4409 16.7437 19.4323 16.8367 19.4472 16.9275L19.9675 19.8778C20.0009 20.0295 19.9965 20.1866 19.9547 20.3363C19.9129 20.486 19.8349 20.6242 19.727 20.7398C19.625 20.865 19.4946 20.9664 19.3455 21.0361C19.1964 21.1058 19.0327 21.142 18.8668 21.1419C18.6903 21.1425 18.517 21.096 18.3666 21.0076L15.5823 19.6061C15.4963 19.5628 15.3995 19.5428 15.3025 19.5486C15.2059 19.5473 15.1103 19.567 15.0227 19.6061L12.2641 21.0238C12.1074 21.1147 11.927 21.1613 11.7438 21.1581C11.5804 21.1552 11.4194 21.1196 11.2712 21.0535C11.123 20.9874 10.991 20.8923 10.8836 20.7743C10.7768 20.6581 10.6996 20.5198 10.6578 20.3703C10.6161 20.2208 10.6111 20.0641 10.6431 19.9124L11.1834 16.962C11.1952 16.8713 11.1851 16.7792 11.1539 16.6929C11.1226 16.6065 11.071 16.5282 11.003 16.4639L8.76232 14.3571C8.60766 14.2181 8.49879 14.0389 8.44908 13.8414C8.39937 13.644 8.411 13.4369 8.48253 13.2457C8.54774 13.0548 8.66597 12.8844 8.82456 12.7529C8.98315 12.6213 9.17613 12.5335 9.38283 12.4989L12.4637 12.0545C12.5606 12.0427 12.6531 12.0086 12.7332 11.9551C12.8133 11.9017 12.8788 11.8305 12.9239 11.7475L14.3044 9.06506C14.3984 8.88788 14.5414 8.73879 14.7179 8.63405C14.8943 8.5293 15.0973 8.4729 15.3049 8.471C15.513 8.47046 15.7171 8.52584 15.894 8.63086C16.0709 8.73588 16.2134 8.88632 16.3054 9.06506L17.6859 11.7475C17.7333 11.8287 17.7994 11.8986 17.8791 11.9518C17.9588 12.0049 18.0501 12.0401 18.1461 12.0545L21.2278 12.4951C21.4343 12.5228 21.6285 12.6059 21.7878 12.7348C21.9471 12.8637 22.0651 13.0331 22.1281 13.2235C22.1956 13.4156 22.2052 13.622 22.1559 13.8191C22.1065 14.0162 22.0002 14.196 21.8491 14.3379ZM26.9518 16.4294H24.2702C24.078 16.4233 23.8959 16.346 23.7622 16.2137C23.6285 16.0815 23.5538 15.9046 23.5538 15.7206C23.5538 15.5365 23.6285 15.3597 23.7622 15.2274C23.8959 15.0952 24.078 15.0178 24.2702 15.0118H26.9518C27.0492 15.0115 27.1457 15.0296 27.2357 15.0652C27.3257 15.1007 27.4075 15.1529 27.4763 15.2188C27.5452 15.2847 27.5997 15.363 27.6369 15.4492C27.674 15.5354 27.6929 15.6278 27.6926 15.721C27.6944 15.8146 27.6765 15.9075 27.64 15.9943C27.6034 16.0811 27.5489 16.16 27.4797 16.2261C27.4105 16.2923 27.3281 16.3444 27.2374 16.3793C27.1467 16.4142 27.0496 16.4313 26.9518 16.4294ZM34.236 12.8658H24.2702C24.078 12.8598 23.8959 12.7824 23.7622 12.6502C23.6285 12.5179 23.5538 12.3411 23.5538 12.157C23.5538 11.973 23.6285 11.7961 23.7622 11.6639C23.8959 11.5316 24.078 11.4543 24.2702 11.4482H34.236C34.3333 11.4479 34.4298 11.466 34.5198 11.5016C34.6098 11.5371 34.6916 11.5893 34.7605 11.6552C34.8293 11.7212 34.8839 11.7995 34.921 11.8856C34.9581 11.9718 34.9771 12.0642 34.9767 12.1574C34.9782 12.2507 34.9599 12.3434 34.9232 12.4298C34.8864 12.5162 34.8318 12.5947 34.7627 12.6605C34.6936 12.7264 34.6113 12.7782 34.5208 12.8129C34.4303 12.8477 34.3335 12.8646 34.236 12.8627V12.8658ZM34.236 9.30223H24.2702C24.078 9.29617 23.8959 9.21884 23.7622 9.08658C23.6285 8.95431 23.5538 8.77747 23.5538 8.59342C23.5538 8.40937 23.6285 8.23253 23.7622 8.10027C23.8959 7.968 24.078 7.89067 24.2702 7.88462H34.236C34.3333 7.88432 34.4298 7.90245 34.5198 7.93798C34.6098 7.97352 34.6916 8.02574 34.7605 8.09166C34.8293 8.15757 34.8839 8.23587 34.921 8.32205C34.9581 8.40823 34.9771 8.50059 34.9767 8.59381C34.9782 8.68714 34.9599 8.77978 34.9232 8.86622C34.8864 8.95267 34.8318 9.03114 34.7627 9.09696C34.6936 9.16278 34.6113 9.2146 34.5208 9.24934C34.4303 9.28408 34.3335 9.30102 34.236 9.29916V9.30223Z" fill="url(#paint1_linear_159056_5451)"/>
</g>
<defs>
<filter id="filter0_di_159056_5451" x="23" y="13.5" width="22" height="22" filterUnits="userSpaceOnUse" color-interpolation-filters="sRGB">
<feFlood flood-opacity="0" result="BackgroundImageFix"/>
<feColorMatrix in="SourceAlpha" type="matrix" values="0 0 0 0 0 0 0 0 0 0 0 0 0 0 0 0 0 0 127 0" result="hardAlpha"/>
<feOffset dy="3"/>
<feGaussianBlur stdDeviation="2.5"/>
<feColorMatrix type="matrix" values="0 0 0 0 0 0 0 0 0 0 0 0 0 0 0 0 0 0 0.4 0"/>
<feBlend mode="normal" in2="BackgroundImageFix" result="effect1_dropShadow_159056_5451"/>
<feBlend mode="normal" in="SourceGraphic" in2="effect1_dropShadow_159056_5451" result="shape"/>
<feColorMatrix in="SourceAlpha" type="matrix" values="0 0 0 0 0 0 0 0 0 0 0 0 0 0 0 0 0 0 127 0" result="hardAlpha"/>
<feOffset dy="1"/>
<feComposite in2="hardAlpha" operator="arithmetic" k2="-1" k3="1"/>
<feColorMatrix type="matrix" values="0 0 0 0 1 0 0 0 0 1 0 0 0 0 1 0 0 0 1 0"/>
<feBlend mode="normal" in2="shape" result="effect2_innerShadow_159056_5451"/>
</filter>
<filter id="filter1_di_159056_5451" x="0" y="0" width="45" height="34.0625" filterUnits="userSpaceOnUse" color-interpolation-filters="sRGB">
<feFlood flood-opacity="0" result="BackgroundImageFix"/>
<feColorMatrix in="SourceAlpha" type="matrix" values="0 0 0 0 0 0 0 0 0 0 0 0 0 0 0 0 0 0 127 0" result="hardAlpha"/>
<feOffset dy="3"/>
<feGaussianBlur stdDeviation="2.5"/>
<feColorMatrix type="matrix" values="0 0 0 0 0 0 0 0 0 0 0 0 0 0 0 0 0 0 0.4 0"/>
<feBlend mode="normal" in2="BackgroundImageFix" result="effect1_dropShadow_159056_5451"/>
<feBlend mode="normal" in="SourceGraphic" in2="effect1_dropShadow_159056_5451" result="shape"/>
<feColorMatrix in="SourceAlpha" type="matrix" values="0 0 0 0 0 0 0 0 0 0 0 0 0 0 0 0 0 0 127 0" result="hardAlpha"/>
<feOffset dy="1"/>
<feComposite in2="hardAlpha" operator="arithmetic" k2="-1" k3="1"/>
<feColorMatrix type="matrix" values="0 0 0 0 1 0 0 0 0 1 0 0 0 0 1 0 0 0 1 0"/>
<feBlend mode="normal" in2="shape" result="effect2_innerShadow_159056_5451"/>
</filter>
<linearGradient id="paint0_linear_159056_5451" x1="29.7574" y1="17.2574" x2="39.9397" y2="27.4397" gradientUnits="userSpaceOnUse">
<stop stop-color="#A6A7A7"/>
<stop offset="1" stop-color="#868787"/>
</linearGradient>
<linearGradient id="paint1_linear_159056_5451" x1="10.1256" y1="5.52387" x2="29.1894" y2="33.253" gradientUnits="userSpaceOnUse">
<stop stop-color="#A6A7A7"/>
<stop offset="1" stop-color="#868787"/>
</linearGradient>
</defs>
</svg>
