<svg width="1920" height="76" viewBox="0 0 1920 76" fill="none" xmlns="http://www.w3.org/2000/svg">
<g filter="url(#filter0_ii_159315_4990)">
<path d="M1460.39 72.4551C1460.39 70.7982 1461.73 69.4551 1463.39 69.4551H1920V75.4551H1463.39C1461.73 75.4551 1460.39 74.1119 1460.39 72.4551Z" fill="#F4C05A"/>
<path d="M1414.62 0.793979C1415.95 -0.0665098 1417.72 0.291539 1418.62 1.60075L1464.98 69.5875C1465.9 70.9427 1465.53 72.7932 1464.15 73.6839C1462.82 74.5444 1461.05 74.1864 1460.15 72.8772L1413.79 4.89045C1412.87 3.53518 1413.24 1.68474 1414.62 0.793979Z" fill="#F4C05A"/>
<path d="M0 0L1415.85 0C1417.51 0 1418.85 1.34315 1418.85 3C1418.85 4.65685 1417.51 6 1415.85 6H0V0Z" fill="#F4C05A"/>
</g>
<defs>
<filter id="filter0_ii_159315_4990" x="0" y="-1" width="1920" height="77.4551" filterUnits="userSpaceOnUse" color-interpolation-filters="sRGB">
<feFlood flood-opacity="0" result="BackgroundImageFix"/>
<feBlend mode="normal" in="SourceGraphic" in2="BackgroundImageFix" result="shape"/>
<feColorMatrix in="SourceAlpha" type="matrix" values="0 0 0 0 0 0 0 0 0 0 0 0 0 0 0 0 0 0 127 0" result="hardAlpha"/>
<feOffset dy="-1"/>
<feGaussianBlur stdDeviation="1"/>
<feComposite in2="hardAlpha" operator="arithmetic" k2="-1" k3="1"/>
<feColorMatrix type="matrix" values="0 0 0 0 0.176471 0 0 0 0 0.168627 0 0 0 0 0.101961 0 0 0 0.3 0"/>
<feBlend mode="normal" in2="shape" result="effect1_innerShadow_159315_4990"/>
<feColorMatrix in="SourceAlpha" type="matrix" values="0 0 0 0 0 0 0 0 0 0 0 0 0 0 0 0 0 0 127 0" result="hardAlpha"/>
<feOffset dy="1"/>
<feGaussianBlur stdDeviation="1"/>
<feComposite in2="hardAlpha" operator="arithmetic" k2="-1" k3="1"/>
<feColorMatrix type="matrix" values="0 0 0 0 0.175081 0 0 0 0 0.167957 0 0 0 0 0.103835 0 0 0 0.8 0"/>
<feBlend mode="normal" in2="effect1_innerShadow_159315_4990" result="effect2_innerShadow_159315_4990"/>
</filter>
</defs>
</svg>
